<mxfile host="app.diagrams.net" modified="2023-08-28T08:32:34.703Z" agent="Mozilla/5.0 (Macintosh; Intel Mac OS X 10_15_7) AppleWebKit/537.36 (KHTML, like Gecko) Chrome/116.0.0.0 Safari/537.36" etag="a6lCm5Lm9jqr7WrROuMe" version="21.6.9" type="device">
  <diagram name="Page-1" id="q_rd5B1AxF8B_O2gy0FR">
    <mxGraphModel dx="714" dy="740" grid="1" gridSize="10" guides="1" tooltips="1" connect="1" arrows="1" fold="1" page="1" pageScale="1" pageWidth="827" pageHeight="1169" math="0" shadow="0">
      <root>
        <mxCell id="0" />
        <mxCell id="1" parent="0" />
        <mxCell id="LlQZwmhQxpqZ8YBwqJqh-1" value="" style="rounded=0;whiteSpace=wrap;html=1;" vertex="1" parent="1">
          <mxGeometry x="40" y="40" width="280" height="520" as="geometry" />
        </mxCell>
        <mxCell id="LlQZwmhQxpqZ8YBwqJqh-2" value="" style="rounded=1;whiteSpace=wrap;html=1;" vertex="1" parent="1">
          <mxGeometry x="60" y="90" width="240" height="450" as="geometry" />
        </mxCell>
        <mxCell id="LlQZwmhQxpqZ8YBwqJqh-3" value="+" style="rounded=0;whiteSpace=wrap;html=1;fontSize=29;" vertex="1" parent="1">
          <mxGeometry x="280" y="60" width="20" height="20" as="geometry" />
        </mxCell>
        <mxCell id="LlQZwmhQxpqZ8YBwqJqh-5" value="" style="rounded=0;whiteSpace=wrap;html=1;" vertex="1" parent="1">
          <mxGeometry x="60" y="120" width="240" height="60" as="geometry" />
        </mxCell>
        <mxCell id="LlQZwmhQxpqZ8YBwqJqh-6" value="" style="rounded=0;whiteSpace=wrap;html=1;" vertex="1" parent="1">
          <mxGeometry x="60" y="180" width="240" height="60" as="geometry" />
        </mxCell>
        <mxCell id="LlQZwmhQxpqZ8YBwqJqh-7" value="" style="rounded=0;whiteSpace=wrap;html=1;" vertex="1" parent="1">
          <mxGeometry x="60" y="240" width="240" height="60" as="geometry" />
        </mxCell>
        <mxCell id="LlQZwmhQxpqZ8YBwqJqh-8" value="" style="rounded=0;whiteSpace=wrap;html=1;" vertex="1" parent="1">
          <mxGeometry x="60" y="300" width="240" height="60" as="geometry" />
        </mxCell>
        <mxCell id="LlQZwmhQxpqZ8YBwqJqh-9" value="" style="ellipse;whiteSpace=wrap;html=1;aspect=fixed;" vertex="1" parent="1">
          <mxGeometry x="70" y="320" width="20" height="20" as="geometry" />
        </mxCell>
        <mxCell id="LlQZwmhQxpqZ8YBwqJqh-10" value="" style="ellipse;whiteSpace=wrap;html=1;aspect=fixed;" vertex="1" parent="1">
          <mxGeometry x="70" y="260" width="20" height="20" as="geometry" />
        </mxCell>
        <mxCell id="LlQZwmhQxpqZ8YBwqJqh-11" value="" style="ellipse;whiteSpace=wrap;html=1;aspect=fixed;" vertex="1" parent="1">
          <mxGeometry x="70" y="200" width="20" height="20" as="geometry" />
        </mxCell>
        <mxCell id="LlQZwmhQxpqZ8YBwqJqh-12" value="" style="ellipse;whiteSpace=wrap;html=1;aspect=fixed;" vertex="1" parent="1">
          <mxGeometry x="70" y="140" width="20" height="20" as="geometry" />
        </mxCell>
        <mxCell id="LlQZwmhQxpqZ8YBwqJqh-13" value="" style="rounded=0;whiteSpace=wrap;html=1;" vertex="1" parent="1">
          <mxGeometry x="340" y="170" width="280" height="180" as="geometry" />
        </mxCell>
        <mxCell id="LlQZwmhQxpqZ8YBwqJqh-14" value="fill in titel" style="text;html=1;strokeColor=none;fillColor=none;align=center;verticalAlign=middle;whiteSpace=wrap;rounded=0;" vertex="1" parent="1">
          <mxGeometry x="340" y="170" width="60" height="30" as="geometry" />
        </mxCell>
        <mxCell id="LlQZwmhQxpqZ8YBwqJqh-15" value="" style="rounded=0;whiteSpace=wrap;html=1;" vertex="1" parent="1">
          <mxGeometry x="350" y="200" width="250" height="20" as="geometry" />
        </mxCell>
        <mxCell id="LlQZwmhQxpqZ8YBwqJqh-16" value="" style="rounded=0;whiteSpace=wrap;html=1;" vertex="1" parent="1">
          <mxGeometry x="350" y="250" width="250" height="30" as="geometry" />
        </mxCell>
        <mxCell id="LlQZwmhQxpqZ8YBwqJqh-17" value="description" style="text;html=1;strokeColor=none;fillColor=none;align=center;verticalAlign=middle;whiteSpace=wrap;rounded=0;" vertex="1" parent="1">
          <mxGeometry x="350" y="220" width="60" height="30" as="geometry" />
        </mxCell>
        <mxCell id="LlQZwmhQxpqZ8YBwqJqh-18" value="X" style="rounded=0;whiteSpace=wrap;html=1;fontSize=17;" vertex="1" parent="1">
          <mxGeometry x="600" y="170" width="20" height="20" as="geometry" />
        </mxCell>
        <mxCell id="LlQZwmhQxpqZ8YBwqJqh-20" value="done" style="rounded=1;whiteSpace=wrap;html=1;" vertex="1" parent="1">
          <mxGeometry x="570" y="320" width="40" height="20" as="geometry" />
        </mxCell>
        <mxCell id="LlQZwmhQxpqZ8YBwqJqh-22" value="CheckList" style="text;html=1;strokeColor=none;fillColor=none;align=center;verticalAlign=middle;whiteSpace=wrap;rounded=0;" vertex="1" parent="1">
          <mxGeometry x="150" y="50" width="60" height="30" as="geometry" />
        </mxCell>
        <mxCell id="LlQZwmhQxpqZ8YBwqJqh-23" value="" style="rounded=0;whiteSpace=wrap;html=1;" vertex="1" parent="1">
          <mxGeometry x="100" y="310" width="100" height="20" as="geometry" />
        </mxCell>
        <mxCell id="LlQZwmhQxpqZ8YBwqJqh-24" value="" style="rounded=0;whiteSpace=wrap;html=1;" vertex="1" parent="1">
          <mxGeometry x="100" y="250" width="100" height="20" as="geometry" />
        </mxCell>
        <mxCell id="LlQZwmhQxpqZ8YBwqJqh-25" value="" style="rounded=0;whiteSpace=wrap;html=1;" vertex="1" parent="1">
          <mxGeometry x="100" y="190" width="100" height="20" as="geometry" />
        </mxCell>
        <mxCell id="LlQZwmhQxpqZ8YBwqJqh-26" value="" style="rounded=0;whiteSpace=wrap;html=1;" vertex="1" parent="1">
          <mxGeometry x="100" y="130" width="100" height="20" as="geometry" />
        </mxCell>
        <mxCell id="LlQZwmhQxpqZ8YBwqJqh-28" value="" style="endArrow=none;html=1;rounded=0;entryX=1.004;entryY=0.933;entryDx=0;entryDy=0;entryPerimeter=0;exitX=-0.004;exitY=0.933;exitDx=0;exitDy=0;exitPerimeter=0;" edge="1" parent="1" source="LlQZwmhQxpqZ8YBwqJqh-2" target="LlQZwmhQxpqZ8YBwqJqh-2">
          <mxGeometry width="50" height="50" relative="1" as="geometry">
            <mxPoint x="80" y="510" as="sourcePoint" />
            <mxPoint x="390" y="360" as="targetPoint" />
          </mxGeometry>
        </mxCell>
        <mxCell id="LlQZwmhQxpqZ8YBwqJqh-29" value="^ completed" style="text;html=1;strokeColor=none;fillColor=none;align=center;verticalAlign=middle;whiteSpace=wrap;rounded=0;" vertex="1" parent="1">
          <mxGeometry x="60" y="510" width="100" height="30" as="geometry" />
        </mxCell>
      </root>
    </mxGraphModel>
  </diagram>
</mxfile>
